<svg width="96" height="115" viewBox="0 0 96 115" fill="none" xmlns="http://www.w3.org/2000/svg">
<g clip-path="url(#clip0_2303_21)">
<path d="M43.357 94.905C43.1148 94.3 42.9936 93.695 42.8726 93.0892C42.5092 90.7892 42.5092 88.4892 42.9936 86.0683C39.3604 77.3525 33.6683 62.1 33.6683 50.7211V44.6684H39.4815C41.6614 44.6684 43.4781 42.8527 43.4781 40.6737C43.4781 38.4948 41.6614 36.6789 39.4815 36.6789H34.8794L39.3604 22.1527C39.6026 21.4263 39.2393 20.7 38.5126 20.4579L28.945 17.5527V10.4105H33.6683C34.0316 10.4105 34.2738 10.1684 34.2738 9.80525V5.93158C34.2738 5.56842 34.0316 5.32632 33.6683 5.32632H28.945V0.605263C28.945 0.242105 28.7028 0 28.3395 0H24.464C24.1007 0 23.8584 0.242105 23.8584 0.605263V5.20527H19.1352C18.7719 5.20527 18.5297 5.44737 18.5297 5.81053V9.68425C18.5297 10.0473 18.7719 10.2895 19.1352 10.2895H23.8584V17.5527L14.2909 20.4579C13.5642 20.7 13.2009 21.4263 13.4431 22.1527L17.9241 36.6789H13.3219C11.142 36.6789 9.32541 38.4948 9.32541 40.6737C9.32541 42.8527 11.142 44.6684 13.3219 44.6684H19.1352V50.7211C19.1352 64.1579 11.2631 83.0425 8.11427 90.1842C7.26653 92 7.26653 94.0576 8.11427 95.8734L9.56761 99.1425H9.32541C4.1177 99.1425 0 103.379 0 108.463V113.427C0 114.273 0.726653 115 1.57441 115H35.8482C35.7271 114.516 35.7271 114.032 35.7271 113.427V108.463C35.7271 102.773 38.7548 97.6892 43.357 94.905Z" fill="url(#paint0_linear_2303_21)"/>
<path d="M86.5078 98.8891H82.7536C91.3526 95.2575 89.8986 87.2683 86.6288 79.0366C83.4798 71.0472 92.4423 65.2367 93.2901 50.7103C94.5008 29.163 74.2755 27.5893 68.7048 27.4683C67.9782 27.4683 67.4938 28.1946 67.736 28.7998L69.4315 34.7314C65.4349 34.8525 61.8016 38.363 59.985 41.9946C56.7151 48.6525 47.5108 51.4367 45.9364 55.4314C44.3619 59.5472 47.753 65.2367 50.0541 65.963C53.4452 66.9314 62.6494 60.7578 65.0716 59.6683C67.4938 58.5788 68.0993 60.8788 55.3829 76.9791C44.3619 91.0208 52.9607 97.3157 55.504 98.7683H52.4763C47.2686 98.7683 43.1509 103.005 43.1509 108.089V113.052C43.1509 113.9 43.8775 114.626 44.7253 114.626H94.3799C95.2277 114.626 95.9547 113.9 95.9547 113.052V108.089C95.9547 103.005 91.7153 98.8891 86.5078 98.8891ZM69.5526 48.0472C67.4938 48.0472 65.9194 46.4735 65.9194 44.4156C65.9194 42.3578 67.4938 40.784 69.5526 40.784C71.6115 40.784 73.1859 42.4788 73.1859 44.4156C73.3068 46.3525 71.6115 48.0472 69.5526 48.0472Z" fill="url(#paint1_linear_2303_21)"/>
</g>
<defs>
<linearGradient id="paint0_linear_2303_21" x1="21.7389" y1="0" x2="21.7389" y2="115" gradientUnits="userSpaceOnUse">
<stop stop-color="#2EFB46"/>
<stop offset="1" stop-color="#49AA3B"/>
</linearGradient>
<linearGradient id="paint1_linear_2303_21" x1="69.5526" y1="27.4683" x2="69.5526" y2="114.626" gradientUnits="userSpaceOnUse">
<stop stop-color="#2EFB46"/>
<stop offset="1" stop-color="#49AA3B"/>
</linearGradient>
<clipPath id="clip0_2303_21">
<rect width="96" height="115" fill="white"/>
</clipPath>
</defs>
</svg>
