<svg width="131" height="131" viewBox="0 0 131 131" fill="none" xmlns="http://www.w3.org/2000/svg">
<path d="M121.19 53.7305C116.953 50.5834 111.544 48.4214 105.962 47.5899C104.268 37.5653 99.7672 28.9966 92.836 22.6564C85.4954 15.9273 75.7881 12.2275 65.5 12.2275C56.4554 12.2275 48.1016 15.0625 41.3546 20.4278C36.2283 24.5092 32.2357 29.8383 29.759 35.9048C22.0986 37.0817 15.1443 40.1725 9.95805 44.7447C3.44387 50.4888 0 58.1415 0 66.8791C0 75.7114 3.7074 83.7658 10.4365 89.5892C16.8637 95.1388 25.5169 98.1963 34.7969 98.1963H61.4062V58.9551L49.125 71.2364L43.3349 65.4463L65.5 43.2837L87.6651 65.4463L81.875 71.2364L69.5938 58.9551V98.1963H101.32C109.339 98.1963 116.649 95.9447 121.904 91.8587C127.855 87.2276 131 80.6008 131 72.7127C131 65.0523 127.607 58.4844 121.19 53.7305Z" fill="black"/>
<path d="M121.19 53.7305C116.953 50.5834 111.544 48.4214 105.962 47.5899C104.268 37.5653 99.7672 28.9966 92.836 22.6564C85.4954 15.9273 75.7881 12.2275 65.5 12.2275C56.4554 12.2275 48.1016 15.0625 41.3546 20.4278C36.2283 24.5092 32.2357 29.8383 29.759 35.9048C22.0986 37.0817 15.1443 40.1725 9.95805 44.7447C3.44387 50.4888 0 58.1415 0 66.8791C0 75.7114 3.7074 83.7658 10.4365 89.5892C16.8637 95.1388 25.5169 98.1963 34.7969 98.1963H61.4062V58.9551L49.125 71.2364L43.3349 65.4463L65.5 43.2837L87.6651 65.4463L81.875 71.2364L69.5938 58.9551V98.1963H101.32C109.339 98.1963 116.649 95.9447 121.904 91.8587C127.855 87.2276 131 80.6008 131 72.7127C131 65.0523 127.607 58.4844 121.19 53.7305Z" fill="url(#paint0_linear_109_1461)"/>
<path d="M121.19 53.7305C116.953 50.5834 111.544 48.4214 105.962 47.5899C104.268 37.5653 99.7672 28.9966 92.836 22.6564C85.4954 15.9273 75.7881 12.2275 65.5 12.2275C56.4554 12.2275 48.1016 15.0625 41.3546 20.4278C36.2283 24.5092 32.2357 29.8383 29.759 35.9048C22.0986 37.0817 15.1443 40.1725 9.95805 44.7447C3.44387 50.4888 0 58.1415 0 66.8791C0 75.7114 3.7074 83.7658 10.4365 89.5892C16.8637 95.1388 25.5169 98.1963 34.7969 98.1963H61.4062V58.9551L49.125 71.2364L43.3349 65.4463L65.5 43.2837L87.6651 65.4463L81.875 71.2364L69.5938 58.9551V98.1963H101.32C109.339 98.1963 116.649 95.9447 121.904 91.8587C127.855 87.2276 131 80.6008 131 72.7127C131 65.0523 127.607 58.4844 121.19 53.7305Z" fill="url(#paint1_linear_109_1461)"/>
<defs>
<linearGradient id="paint0_linear_109_1461" x1="65.5" y1="12.2275" x2="65.5" y2="98.1963" gradientUnits="userSpaceOnUse">
<stop stop-color="#FBCAAD"/>
<stop offset="1" stop-color="#C64E07"/>
</linearGradient>
<linearGradient id="paint1_linear_109_1461" x1="65.4996" y1="12.2275" x2="65.4996" y2="98.1963" gradientUnits="userSpaceOnUse">
<stop stop-color="#E98FFF"/>
<stop offset="1" stop-color="#8508C3"/>
</linearGradient>
</defs>
</svg>
